# xmcd CD database file
#
# Track frame offsets:
#	183
#	13923
#	28840
#	39915
#	61548
#	74885
#	87980
#	104783
#	118200
#	130223
#
# Disc length: 1967 seconds
#
# Revision: 6
# Processed by: cddbd v1.5.2PL0 Copyright (c) Steve Scherf et al.
# Submitted via: jetAudio 5
#
DISCID=9107ad0a
DTITLE=Hank Williams Jr. - Lone Wolf
DYEAR=1990
DGENRE=Southern Rock
TTITLE0=Good Friends, Good Whiskey, Good Lovin'
TTITLE1=U.S.A. Today
TTITLE2=Hot To Trot
TTITLE3=Big Mamou
TTITLE4=I Mean I Love You
TTITLE5=Man To Man
TTITLE6=Almost Persuaded
TTITLE7=Stoned At The Jukebox
TTITLE8=Ain't Nobody's Business
TTITLE9=Lone Wolf
EXTD=upc 075992609029(c)1990 Warner Bros - CURB
EXTT0=
EXTT1=
EXTT2=
EXTT3=
EXTT4=
EXTT5=
EXTT6=
EXTT7=
EXTT8=
EXTT9=
PLAYORDER=
